<?xml version="1.0" encoding="UTF-8"?> <svg xmlns="http://www.w3.org/2000/svg" width="60" height="60" viewBox="0 0 60 60"> <path d="M30,12.75c5.89,0,12.23,2.92,18.35,8.45a53.06,53.06,0,0,1,7.52,8.4.73.73,0,0,1,0,.8,53.06,53.06,0,0,1-7.52,8.4C42.23,44.33,35.89,47.25,30,47.25S17.77,44.33,11.65,38.8a53.06,53.06,0,0,1-7.52-8.4.73.73,0,0,1,0-.8,53.06,53.06,0,0,1,7.52-8.4C17.77,15.67,24.11,12.75,30,12.75Zm0,1.42C17.77,14.17,7.42,27.5,5.59,30,7.42,32.5,17.77,45.83,30,45.83S52.58,32.5,54.41,30C52.58,27.5,42.23,14.17,30,14.17Zm-.24,5A10.86,10.86,0,1,1,20,25.29a.71.71,0,0,1,1.28.62A9.31,9.31,0,0,0,20.31,30a9.44,9.44,0,1,0,4.17-7.84A.71.71,0,1,1,23.69,21,10.75,10.75,0,0,1,29.76,19.13ZM30,26.69a3.55,3.55,0,1,1-3.54,3.55A3.55,3.55,0,0,1,30,26.69Zm0,1.42a2.13,2.13,0,1,0,2.13,2.13A2.13,2.13,0,0,0,30,28.11Z" fill="#050024" fill-rule="evenodd"></path> </svg> 