<?xml version="1.0" encoding="UTF-8"?> <svg xmlns="http://www.w3.org/2000/svg" width="60" height="60" viewBox="0 0 60 60"> <path d="M56,8.25a2.12,2.12,0,0,1,2.11,2.11V42.85A2.12,2.12,0,0,1,56,45H42.85l.91,4.87a1.62,1.62,0,0,1-1.59,1.92H27.08a1.63,1.63,0,0,1-1.59-2l1-4.83H23a.65.65,0,0,1-.65-.65.66.66,0,0,1,.65-.66H56a.8.8,0,0,0,.8-.8V39.38h-34a.65.65,0,1,1,0-1.3h34V10.36a.81.81,0,0,0-.8-.81H13.27a.81.81,0,0,0-.8.81v6.3a.66.66,0,0,1-1.31,0v-6.3a2.12,2.12,0,0,1,2.11-2.11ZM18.23,19.41a2.05,2.05,0,0,1,2,2.1V49.16a2.05,2.05,0,0,1-2,2.1H7.51a.65.65,0,0,1,0-1.3H18.23a.75.75,0,0,0,.69-.8V44.83H3.25v3.11a.66.66,0,1,1-1.31,0V21.51a2.05,2.05,0,0,1,2-2.1ZM41.52,45H27.86l-1.09,5.1a.34.34,0,0,0,.06.27.34.34,0,0,0,.25.11H42.17a.3.3,0,0,0,.24-.11.27.27,0,0,0,.07-.26ZM11,45.57A1.89,1.89,0,1,1,9.1,47.46,1.89,1.89,0,0,1,11,45.57Zm0,.87a1,1,0,1,0,1,1A1,1,0,0,0,11,46.44ZM3.25,25.32v18.2H18.92V25.32H3.25Zm15-4.61H3.94a.75.75,0,0,0-.69.8V24H18.92v-2.5A.75.75,0,0,0,18.23,20.71ZM12.6,22.06a.44.44,0,0,1,0,.87H9.71a.44.44,0,1,1,0-.87ZM37.28,11.62a.44.44,0,0,1,0,.87H31.46a.44.44,0,1,1,0-.87Z" fill="#050024" fill-rule="evenodd"></path> </svg> 