<?xml version="1.0" encoding="UTF-8"?> <svg xmlns="http://www.w3.org/2000/svg" width="60" height="60" viewBox="0 0 60 60"> <path d="M32.12,26.88c.33-1.69.65-3.33,1-5.1l-3.57,3,2.57,2.11m8.09,16.05c.4.17.49.57.25,1.12l-.94,2.09-.46,1a2.09,2.09,0,0,0-.16.78c0,1.42,0,2.84,0,4.26a1.08,1.08,0,0,1-.42,1h-.55a1.2,1.2,0,0,1-.39-1c0-1.48,0-3,0-4.44a2.8,2.8,0,0,1,.22-1c.46-1.1,1-2.18,1.45-3.27C39.46,43,39.8,42.76,40.21,42.93ZM17.07,39.39c.09.43.15.86.26,1.28a9.74,9.74,0,0,0,1.91,3.61c.87,1.07,1.73,2.14,2.56,3.23a1.74,1.74,0,0,1,.3.86c0,.65,0,1.3,0,2s0,1.39,0,2.08c0,.51-.26.79-.67.79s-.67-.28-.68-.78c0-1.21,0-2.42,0-3.62a1.49,1.49,0,0,0-.25-.74c-1.06-1.39-2.18-2.74-3.19-4.16a9.58,9.58,0,0,1-1.56-4.11c-.06-.39-.06-.77.38-1A.68.68,0,0,1,17.07,39.39ZM27.5,7a3.3,3.3,0,0,1,2.68,2.74,3.21,3.21,0,0,1-.4,2.36c-.25.43-.53.84-.82,1.25a.68.68,0,1,1-1.12-.76c.21-.33.45-.65.66-1a2.11,2.11,0,0,0-.53-3A2.09,2.09,0,0,0,25,9.17c-1.31,1.89-2.59,3.79-3.88,5.69a3.36,3.36,0,0,0-.61,1.87c0,2.08,0,4.17,0,6.25a1.75,1.75,0,0,0,0,.25l.55-.45c1.08-.91,2.16-1.83,3.26-2.72a1,1,0,0,0,.39-.85c0-2.65-.23-1.77,1.3-4.07.3-.45.68-.55,1-.3s.38.63.08,1.07L26.41,17a1.52,1.52,0,0,0-.23,1.48c.92-.76,1.82-1.51,2.71-2.27l2.36-2a3.43,3.43,0,0,1,5,.27c.19.19.31.15.51.06a4.13,4.13,0,0,1,2.58-.46,2.92,2.92,0,0,1,2.35,3.1l-.43,5.18c-.07.86-.14,1.72-.2,2.59a2.09,2.09,0,0,0,.18.95c.56,1.29,1.25,2.52,1.71,3.84a12.87,12.87,0,0,1-.47,9.71c-.22.51-.45,1-.68,1.53s-.57.62-.94.46-.51-.56-.3-1a18.64,18.64,0,0,0,1.53-4.15,11.85,11.85,0,0,0-1-7.46c-.28-.59-.52-1.19-.85-1.75a4.69,4.69,0,0,1-.54-3c.23-2.32.41-4.64.6-7a1.56,1.56,0,0,0-1.94-1.7c-.46.1-.91.29-1.37.44a3.33,3.33,0,0,1-.45,2.67,19,19,0,0,1-1.47,1.51,1.62,1.62,0,0,0-.41.7c-.46,2.25-.88,4.51-1.34,6.75a.52.52,0,0,0,.21.58l2,1.7a3.47,3.47,0,0,1-.17,5.69l-.08.06-.06,0,.52.47a3.47,3.47,0,0,1-4.51,5.27c-1-.81-1.94-1.64-2.95-2.5l-.54.53a.68.68,0,1,1-1-1c.28-.3.57-.58.87-.86a.7.7,0,0,1,1.14,0c1.1.92,2.18,1.86,3.28,2.78a2.11,2.11,0,0,0,3.25-2.55,2.63,2.63,0,0,0-.6-.73c-1.76-1.52-3.53-3-5.3-4.53a1.69,1.69,0,0,0-2.41,0l-3.45,3c-.26.23-.59.35-.86.11a1.18,1.18,0,0,1-.3-.69.7.7,0,0,1,.27-.44c1.21-1.07,2.42-2.15,3.66-3.18a3,3,0,0,1,3.9.09c1.18,1,2.36,2,3.52,3a.53.53,0,0,0,.71.06A2.08,2.08,0,0,0,35,31.16c-1.86-1.67-3.79-3.27-5.72-4.88a1.6,1.6,0,0,0-2.15.13l-3.35,2.91c-.07.06-.13.13-.2.18a.68.68,0,0,1-1-.05.67.67,0,0,1,.09-1c.85-.75,1.7-1.5,2.56-2.23l.2-.17h0l.38-.34a4.86,4.86,0,0,1,1.74-1.1A3.3,3.3,0,0,0,28.4,24q3.24-2.73,6.49-5.45a2.11,2.11,0,1,0-2.64-3.3c-1.55,1.27-3.08,2.57-4.62,3.86-3.08,2.58-6.14,5.19-9.24,7.73a5,5,0,0,0-2,4.73c.19,1.56.26,3.13.39,4.7a1.09,1.09,0,0,0,0,.18c0,.47-.23.77-.63.79s-.69-.24-.73-.73c-.14-1.79-.33-3.58-.41-5.38A7.72,7.72,0,0,1,15.28,29a5.29,5.29,0,0,1,1.78-2.78c.58-.51,1.17-1,1.77-1.48a.83.83,0,0,0,.35-.73c0-2.28,0-4.56,0-6.84a5.46,5.46,0,0,1,1-3.27c1.26-1.83,2.49-3.68,3.76-5.49A3.29,3.29,0,0,1,27.5,7Zm17.58,4.68v.45a6.75,6.75,0,0,1-.65.55c-.63.41-1.27.79-1.91,1.19s-.92.27-1.14-.11-.09-.72.41-1l2-1.26C44.41,11.05,44.64,11.09,45.08,11.63ZM41.23,8.05a.61.61,0,0,1,.28.85c-.46.88-.95,1.74-1.45,2.6-.1.16-.35.25-.44.31-.59,0-.94-.5-.73-.92.46-.9,1-1.78,1.47-2.64A.59.59,0,0,1,41.23,8.05ZM36.3,6.83c.39,0,.64.3.65.77S37,8.5,37,9v1.35a.67.67,0,1,1-1.34,0c0-.92,0-1.84,0-2.76A.68.68,0,0,1,36.3,6.83Z" fill="#050024" fill-rule="evenodd"></path> </svg> 