<?xml version="1.0" encoding="UTF-8"?> <svg xmlns="http://www.w3.org/2000/svg" width="60" height="60" viewBox="0 0 60 60"> <path d="M52.68,18.92a.61.61,0,0,1,.61.61V29.76a.61.61,0,0,1-.61.62H43.27v8.39H56V30.58h-1a.61.61,0,0,1-.61-.61.61.61,0,0,1,.61-.62h1.64a.61.61,0,0,1,.61.62v9.41a.61.61,0,0,1-.61.61H42.65a.61.61,0,0,1-.61-.61V29.76a.61.61,0,0,1,.61-.61h9.42v-9H6.63V50H51.25V42.45a.61.61,0,0,1,.61-.61.61.61,0,0,1,.62.61v8.19a.62.62,0,0,1-.62.61H6a.61.61,0,0,1-.61-.61V19.53A.61.61,0,0,1,6,18.92Zm-24.42,7a.61.61,0,0,1,.61.61v2.06c2.24.11,3.84.72,4.78,1.81a3.31,3.31,0,0,1,.81,2.52.61.61,0,1,1-1.21-.18,2.19,2.19,0,0,0-.55-1.57,5.45,5.45,0,0,0-3.83-1.35v5.33c2.6.23,5.12,1.68,5.12,4.19a3.43,3.43,0,0,1-1.54,2.8,6.75,6.75,0,0,1-3.58,1.13V44.7a.62.62,0,1,1-1.23,0V43.26a5.8,5.8,0,0,1-4-1.56,4.43,4.43,0,0,1-1.21-2.89v-.07h0a.62.62,0,0,1,1.23,0v0a3.17,3.17,0,0,0,.88,2.06A4.58,4.58,0,0,0,27.64,42V36.3a6.45,6.45,0,0,1-3.55-1.11,3.35,3.35,0,0,1-1.44-2.7c0-1.87,1.71-3.77,5-3.93V26.5A.61.61,0,0,1,28.26,25.89Zm.61,10.45V42a5.5,5.5,0,0,0,2.86-.89,2.23,2.23,0,0,0,1-1.81C32.76,38,31.4,36.58,28.87,36.34ZM49.41,32a2.66,2.66,0,1,1-2.66,2.66A2.67,2.67,0,0,1,49.41,32Zm0,1.23a1.44,1.44,0,1,0,1.43,1.43A1.44,1.44,0,0,0,49.41,33.24Zm-25.54-.75a2.15,2.15,0,0,0,1,1.72,5.17,5.17,0,0,0,2.81.86V29.78C25.17,29.93,23.87,31.22,23.87,32.49ZM43.64,10.12l2.46,7a.63.63,0,0,1-.38.79.69.69,0,0,1-.2,0,.61.61,0,0,1-.58-.41l-2.26-6.4-19.49,6a.62.62,0,0,1-.77-.41.61.61,0,0,1,.41-.77L42.88,9.73A.62.62,0,0,1,43.64,10.12ZM37.51,7.67a.62.62,0,0,1-.4.78l-25,8.18a.69.69,0,0,1-.2,0,.61.61,0,0,1-.19-1.19l25-8.19A.62.62,0,0,1,37.51,7.67Z" fill="#050024" fill-rule="evenodd"></path> </svg> 