<?xml version="1.0" encoding="UTF-8"?> <svg xmlns="http://www.w3.org/2000/svg" width="60" height="60" viewBox="0 0 60 60"> <path d="M28.05,8.62a.8.8,0,0,1,.76,0h0l1.73.64L49,16.06h0a1.49,1.49,0,0,1,.46.36l.17.16h0V41.06a.61.61,0,1,1-1.21,0h0v-13h0V17.7a.76.76,0,0,0-.58-.8l-13.45-5h0l-4.25-1.58-.54-.19h0L29,9.93V29.25a1.1,1.1,0,0,1-.21.78.54.54,0,0,1-.4.13c-.19,0-.6,0-.6-.93h0V21.07l-.51.2-.25.1h0l-2.66,1.19L12.26,27.91a.8.8,0,0,0-.55.86c0,3.61,0,11.73,0,16.88v4.77h16V43.25c0-1.9,0-3.77,0-5v-.89a.74.74,0,0,1,.24-.6.57.57,0,0,1,.48-.11c.21,0,.48.16.48.79h0V50.41H35V41.72c0-.7.17-.87.88-.87h5.55a.89.89,0,0,1,.89.89h0v8.67h4.2a.62.62,0,1,1,0,1.23H10.92a.94.94,0,0,1-.42-.91q0-11.34,0-22.67a.91.91,0,0,1,.63-1L20.47,23l6.74-3a.91.91,0,0,0,.54-.83c0-2.68,0-5.35,0-8h0V9.31A.79.79,0,0,1,28.05,8.62ZM41.1,42.08H36.24v8.35H41.1ZM21.69,38.5h2.4c.54,0,.73.2.73.75,0,2.26,0,4.53,0,6.79,0,.56-.2.76-.77.76H15.78c-.57,0-.78-.21-.78-.77V43.69h0V39.26c0-.55.19-.75.74-.75h6Zm1.9,1.23H16.24v5.85h7.35Zm10.85-10h2.22c.54,0,.73.2.74.75,0,2.26,0,4.53,0,6.79,0,.56-.2.76-.77.76H32.27c-.57,0-.78-.21-.78-.77V34.93h0V30.51c0-.55.2-.75.74-.75Zm9.87,0h1.08c.62,0,.8.17.8.82h0v5.49h0v1.2c0,.59-.21.79-.79.79H41.05c-.56,0-.77-.21-.77-.77V30.51c0-.57.19-.75.77-.75h3.26ZM36.16,31H32.73v5.85h3.43ZM45,31H41.53v5.85H45ZM22.79,28.05h1c.55,0,.75.21.75.74,0,2.23,0,4.47,0,6.7,0,.53-.2.73-.76.74H16.15c-.68,0-.85-.18-.86-.86h0V33.91c0-.94,0-1.87,0-2.81a.78.78,0,0,1,.56-.84l2.48-1,2.39-1a2.46,2.46,0,0,1,.78-.16c.64,0,1.29,0,1.93,0Zm.48,1.17h-.83a3.73,3.73,0,0,0-1.29.13c-1.1.4-2.19.88-3.25,1.34l-1,.43a.63.63,0,0,0-.39.47c0,.84,0,1.67,0,2.52h0V35h6.77Zm5.08,3.63a.58.58,0,0,1,.6.58.62.62,0,0,1-.18.44.57.57,0,0,1-.43.18.61.61,0,0,1-.59-.59.6.6,0,0,1,.17-.43.57.57,0,0,1,.43-.18ZM40.54,20.06a.71.71,0,0,1,.66,0c1.5.54,3,1.1,4.47,1.66.41.15.51.3.51.77,0,1.26,0,2.53,0,3.79,0,.53-.2.74-.7.74-1.49,0-3,0-4.48,0-.53,0-.72-.2-.72-.77V24.39h0v-3.7A.79.79,0,0,1,40.54,20.06ZM32.23,17h0a4.57,4.57,0,0,1,1.29.22c.85.28,1.71.61,2.54.92h0l.73.28c.47.17.57.31.57.82v7c0,.58-.2.77-.76.78H32.25c-.56,0-.76-.2-.76-.78v-3h0v-5.4a.84.84,0,0,1,.19-.64A.72.72,0,0,1,32.2,17h0Zm9.29,4.46v4.32H45V25c0-.65,0-1.3,0-1.94,0-.25-.29-.42-.4-.46l-1.13-.43h0Zm-8.8-3.27v7.58h3.45V19.46Z" fill="#050024" fill-rule="evenodd"></path> </svg> 