<?xml version="1.0" encoding="UTF-8"?> <svg xmlns="http://www.w3.org/2000/svg" id="a" width="60" height="60" viewBox="0 0 60 60"> <path d="M34.02,49.23c-8.78,0-15.93-7.15-15.93-15.93s7.15-15.93,15.93-15.93,15.93,7.15,15.93,15.93-7.15,15.93-15.93,15.93h0Zm0-33.22c-9.54,0-17.3,7.76-17.3,17.3s7.76,17.3,17.3,17.3,17.3-7.76,17.3-17.3-7.76-17.3-17.3-17.3h0Zm-1.61-7.03h-2.38c-.47,0-.85-.38-.85-.85s.38-.85,.85-.85h7.83c.47,0,.85,.38,.85,.85s-.38,.85-.85,.85h-5.45Zm.68,3.55h1.7v-2.18h-1.7v2.18Zm3.07,.11v-2.29h1.7c1.22,0,2.22-.99,2.22-2.22s-.99-2.22-2.22-2.22h-7.83c-1.22,0-2.22,.99-2.22,2.22s.99,2.22,2.22,2.22h1.7v2.31c-6.9,.76-12.79,4.91-15.97,10.75H6.16c-.38,0-.68,.31-.68,.68s.31,.68,.68,.68H15.08c-.69,1.54-1.21,3.17-1.51,4.87H3.1c-.38,0-.68,.31-.68,.68s.31,.68,.68,.68H13.37c-.08,.75-.13,1.52-.13,2.29,0,.87,.06,1.73,.17,2.58H6.16c-.38,0-.68,.31-.68,.68s.31,.68,.68,.68h7.46c.25,1.28,.62,2.53,1.09,3.72H6.51c-.38,0-.68,.31-.68,.68s.31,.68,.68,.68H15.31c3.37,6.95,10.49,11.75,18.71,11.75,5.38,0,10.49-2.05,14.38-5.77,.27-.26,.28-.69,.02-.97-.26-.27-.69-.28-.97-.02-3.63,3.48-8.4,5.39-13.43,5.39-7.68,0-14.34-4.49-17.48-10.98,0-.03,0-.06,0-.09,0-.24-.12-.45-.31-.57-.62-1.4-1.07-2.89-1.34-4.44,0-.02,0-.05,0-.07,0-.11-.03-.21-.07-.3-.15-.97-.23-1.95-.23-2.96,0-10.7,8.71-19.41,19.41-19.41s19.41,8.71,19.41,19.41c0,3.44-.91,6.82-2.64,9.77-.19,.33-.08,.74,.25,.94,.33,.19,.74,.08,.93-.25,1.85-3.16,2.82-6.78,2.82-10.46,0-10.74-8.18-19.6-18.64-20.67h0ZM4.2,40.97h-1.09c-.38,0-.68,.31-.68,.68s.31,.68,.68,.68h1.09c.38,0,.68-.31,.68-.68s-.31-.68-.68-.68h0Zm29.7-6.67c-.5,0-.9-.4-.9-.9s.4-.9,.9-.9,.9,.4,.9,.9-.4,.9-.9,.9h0Zm5.15-6.81l-3.85,4.05c-.37-.26-.82-.42-1.3-.42-.38,0-.74,.1-1.05,.27-.01-.02-.02-.04-.03-.05l-6.04-6.55c-.26-.28-.69-.3-.97-.04-.28,.26-.29,.69-.04,.97l6.04,6.55s.06,.05,.09,.08c-.16,.31-.27,.67-.27,1.05,0,1.25,1.02,2.27,2.27,2.27s2.27-1.02,2.27-2.27c0-.26-.05-.51-.14-.74l4.01-4.22c.26-.27,.25-.71-.02-.97-.27-.26-.71-.25-.97,.03h0Zm8.29,5.16h-.8c-.38,0-.68,.31-.68,.68s.31,.68,.68,.68h.8c.38,0,.68-.31,.68-.68s-.31-.68-.68-.68h0Zm-25.62,0h-.8c-.38,0-.68,.31-.68,.68s.31,.68,.68,.68h.8c.38,0,.68-.31,.68-.68s-.31-.68-.68-.68h0Zm12.18-11.19c.38,0,.68-.31,.68-.68v-.8c0-.38-.31-.68-.68-.68s-.68,.31-.68,.68v.8c0,.38,.31,.68,.68,.68h0Zm0,24.1c-.38,0-.68,.31-.68,.68v.8c0,.38,.31,.68,.68,.68s.68-.31,.68-.68v-.8c0-.38-.31-.68-.68-.68h0Z" fill="#050024" fill-rule="evenodd"></path> </svg> 